<svg width="14" height="24" viewBox="0 0 14 24" fill="none" xmlns="http://www.w3.org/2000/svg">
<path id="Vector" d="M0.535358 0.528276C0.192569 0.866634 -5.79388e-08 1.32548 -7.8852e-08 1.80392C-9.97651e-08 2.28236 0.192569 2.74121 0.535358 3.07957L9.5864 12.0109L0.535358 20.9422C0.202283 21.2825 0.0179806 21.7383 0.0221472 22.2114C0.0263128 22.6845 0.218614 23.137 0.557631 23.4715C0.896649 23.8061 1.35526 23.9958 1.83468 23.9999C2.31411 24.004 2.77599 23.8222 3.12085 23.4935L13.4646 13.2865C13.8074 12.9482 14 12.4893 14 12.0109C14 11.5325 13.8074 11.0736 13.4646 10.7352L3.12085 0.528277C2.77796 0.190021 2.31295 -5.10857e-07 1.8281 -5.3205e-07C1.34325 -5.53244e-07 0.878252 0.190021 0.535358 0.528276Z" fill="#F8F8F8"/>
</svg>
