<svg width="44" height="51" viewBox="0 0 44 51" fill="none" xmlns="http://www.w3.org/2000/svg">
<g filter="url(#filter0_d_623_1399)">
<path fill-rule="evenodd" clip-rule="evenodd" d="M15 2C8.37256 2 3 7.37256 3 14V26C3 32.6274 8.37256 38 15 38H16.9586L21 45L25.0414 38H27C33.6274 38 39 32.6274 39 26V14C39 7.37256 33.6274 2 27 2H15Z" fill="#354F52"/>
</g>
<path d="M30.5181 18.0857L22.0075 10.3816L21.9979 10.3735C21.7244 10.1332 21.3671 10 20.9963 10C20.6255 10 20.2681 10.1332 19.9947 10.3735L19.9851 10.3816L11.4745 18.0857C11.324 18.2201 11.2041 18.383 11.1224 18.5641C11.0408 18.7451 10.9991 18.9405 11 19.1377V28.5714C11 28.9503 11.1569 29.3137 11.4362 29.5816C11.7155 29.8495 12.0944 30 12.4894 30H17.5958C17.9908 30 18.3696 29.8495 18.6489 29.5816C18.9282 29.3137 19.0851 28.9503 19.0851 28.5714V23.6735C19.0851 23.6193 19.1075 23.5674 19.1474 23.5292C19.1873 23.4909 19.2415 23.4694 19.2979 23.4694H22.7021C22.7586 23.4694 22.8127 23.4909 22.8526 23.5292C22.8925 23.5674 22.9149 23.6193 22.9149 23.6735V28.5714C22.9149 28.9503 23.0718 29.3137 23.3511 29.5816C23.6304 29.8495 24.0093 30 24.4043 30H29.5106C29.9056 30 30.2845 29.8495 30.5638 29.5816C30.8431 29.3137 31 28.9503 31 28.5714V19.1377C31 18.9399 30.9571 18.7443 30.8742 18.5632C30.7912 18.3821 30.67 18.2195 30.5181 18.0857ZM29.7234 28.5714C29.7234 28.6256 29.701 28.6775 29.6611 28.7157C29.6212 28.754 29.5671 28.7755 29.5106 28.7755H24.4043C24.3478 28.7755 24.2937 28.754 24.2538 28.7157C24.2139 28.6775 24.1915 28.6256 24.1915 28.5714V23.6735C24.1915 23.2946 24.0346 22.9312 23.7553 22.6633C23.476 22.3954 23.0971 22.2449 22.7021 22.2449H19.2979C18.9029 22.2449 18.5241 22.3954 18.2447 22.6633C17.9654 22.9312 17.8085 23.2946 17.8085 23.6735V28.5714C17.8085 28.6256 17.7861 28.6775 17.7462 28.7157C17.7063 28.754 17.6522 28.7755 17.5958 28.7755H12.4894C12.4329 28.7755 12.3788 28.754 12.3389 28.7157C12.299 28.6775 12.2766 28.6256 12.2766 28.5714V19.1377C12.2765 19.1093 12.2827 19.0812 12.2946 19.0552C12.3065 19.0292 12.3239 19.0059 12.3458 18.9867L12.3553 18.9786L20.8596 11.2765C20.8983 11.2441 20.948 11.2262 20.9995 11.2262C21.0509 11.2262 21.1006 11.2441 21.1394 11.2765L29.6447 18.9796L29.6532 18.9877C29.6752 19.0068 29.6929 19.0301 29.705 19.0561C29.7171 19.0821 29.7233 19.1103 29.7234 19.1388V28.5714Z" fill="#F8F8F8" fill-opacity="0.6"/>
<path d="M22.1753 10.1962L22.1752 10.1963L30.6833 17.8981C30.6838 17.8985 30.6842 17.8989 30.6847 17.8993C30.8618 18.0556 31.0039 18.2461 31.1015 18.4591C31.1993 18.6726 31.25 18.9037 31.25 19.1377V28.5714C31.25 29.0201 31.0641 29.4481 30.7368 29.762C30.4099 30.0756 29.9687 30.25 29.5106 30.25H24.4043C23.9462 30.25 23.505 30.0756 23.1781 29.762C22.8508 29.4481 22.6649 29.0201 22.6649 28.5714V23.7194H19.3351V28.5714C19.3351 29.0201 19.1492 29.4481 18.8219 29.762C18.495 30.0756 18.0538 30.25 17.5958 30.25H12.4894C12.0314 30.25 11.5901 30.0756 11.2632 29.762C10.9359 29.4481 10.75 29.0201 10.75 28.5714V19.1383V19.1377H11L22.1753 10.1962ZM22.1753 10.1962L22.1697 10.1914M22.1753 10.1962L22.1697 10.1914M22.1697 10.1914L22.1614 10.1844C21.8416 9.90406 21.4259 9.75 20.9963 9.75C20.5667 9.75 20.151 9.90406 19.8311 10.1844L19.8229 10.1914L19.8228 10.1913M22.1697 10.1914L19.8228 10.1913M19.8228 10.1913L19.8173 10.1963M19.8228 10.1913L19.8173 10.1963M19.8173 10.1963L11.308 17.8992M19.8173 10.1963L11.308 17.8992M29.5262 19.1392L29.5192 19.1425L29.4932 19.1546L29.5262 19.1392ZM29.5262 19.1392L29.5272 19.1388L29.5262 19.1392ZM11.308 17.8992C11.3077 17.8994 11.3075 17.8996 11.3073 17.8998L11.308 17.8992ZM12.5266 19.1607L20.9995 11.4871L29.4734 19.1618V28.5255H24.4415V23.6735C24.4415 23.2248 24.2556 22.7968 23.9283 22.4829C23.6014 22.1693 23.1602 21.9949 22.7021 21.9949H19.2979C18.8399 21.9949 18.3986 22.1693 18.0717 22.4829C17.7444 22.7968 17.5585 23.2248 17.5585 23.6735V28.5255H12.5266V19.1607Z" stroke="#F8F8F8" stroke-opacity="0.6" stroke-width="0.5"/>
<defs>
<filter id="filter0_d_623_1399" x="0" y="0" width="44" height="51" filterUnits="userSpaceOnUse" color-interpolation-filters="sRGB">
<feFlood flood-opacity="0" result="BackgroundImageFix"/>
<feColorMatrix in="SourceAlpha" type="matrix" values="0 0 0 0 0 0 0 0 0 0 0 0 0 0 0 0 0 0 127 0" result="hardAlpha"/>
<feOffset dx="1" dy="2"/>
<feGaussianBlur stdDeviation="2"/>
<feComposite in2="hardAlpha" operator="out"/>
<feColorMatrix type="matrix" values="0 0 0 0 0 0 0 0 0 0 0 0 0 0 0 0 0 0 0.25 0"/>
<feBlend mode="normal" in2="BackgroundImageFix" result="effect1_dropShadow_623_1399"/>
<feBlend mode="normal" in="SourceGraphic" in2="effect1_dropShadow_623_1399" result="shape"/>
</filter>
</defs>
</svg>
