<svg width="34" height="40" viewBox="0 0 34 40" fill="none" xmlns="http://www.w3.org/2000/svg">
<g id="Group 3">
<path id="Vector" d="M16.5363 0C7.42247 0 0 7.415 0 16.5197C0 25.6244 7.42247 33.0394 16.5363 33.0394C25.6501 33.0394 33.0726 25.6244 33.0726 16.5197C33.0726 7.415 25.6501 0 16.5363 0ZM16.5363 0.951484C25.1246 0.951484 32.1201 7.93995 32.1201 16.5197C32.1201 18.0618 31.8902 19.5382 31.4796 20.949L31.414 20.9326L26.9146 16.6345L24.0244 17.2251L21.9554 15.8143C21.9554 15.8143 21.1835 14.059 21.2493 13.8621C21.3149 13.6653 18.6711 10.1874 18.6711 10.1874L17.4888 8.92424L15.2883 7.3822L14.1387 9.0719L13.6953 10.86L13.1535 11.549L11.9711 12.0904L11.2323 14.9612L7.86581 17.7993L6.35506 18.718L4.9756 21.4903L3.90835 20.7522L1.88845 21.9334C1.26437 20.2601 0.935954 18.4555 0.935954 16.5689C0.95249 7.92355 7.948 0.951484 16.5363 0.951484ZM24.1557 28.8561L15.748 30.4802L19.7549 27.4454L11.8398 30.2342L9.01525 29.299L7.99711 29.5288C7.32392 29.0859 6.68347 28.5936 6.0923 28.0688L8.30915 27.0352L13.5804 28.1836L20.0504 25.7557L26.6846 28.3311C26.3069 28.6594 25.8965 28.9709 25.4859 29.2663L24.1557 28.8561ZM18.0307 21.9334L16.175 23.5574L15.5674 24.8698L11.5114 25.6736L8.47335 24.2136L11.8562 20.7522L3.974 25.7065C3.20209 24.6565 2.5618 23.5082 2.06902 22.2942L3.974 21.2607L5.30401 22.3763L6.9626 19.2265L8.44061 18.4718L11.7576 15.4862L12.4966 12.681L13.761 11.9263L14.2701 11.1389L14.6478 9.38359L15.4361 8.02199L16.0929 9.21953L16.9303 11.8115L18.3098 14.0262L17.0782 15.5518L16.9796 18.4391L18.0307 21.9334ZM20.0833 13.534L21.3806 16.0276L24.1886 18.2751L26.2576 17.8486L30.56 22.0482L25.4039 19.4234L27.1445 22.2122L19.5907 16.4213L20.8551 16.3557L20.0833 13.534Z" fill="#F8F8F8"/>
<path id="Vector_2" d="M4.29943 35.5174L4.85638 37.2297H6.6585L5.2005 38.2879L5.75743 40L4.29943 38.9418L2.84143 40L3.39837 38.2879L1.94037 37.2297H3.74249L4.29943 35.5174Z" fill="#F8F8F8"/>
<path id="Vector_3" d="M10.4177 35.5174L10.9747 37.2297H12.7768L11.3188 38.2879L11.8757 40L10.4177 38.9418L8.95972 40L9.51666 38.2879L8.05865 37.2297H9.86078L10.4177 35.5174Z" fill="#F8F8F8"/>
<path id="Vector_4" d="M22.6545 35.5174L23.2114 37.2297H25.0136L23.5556 38.2879L24.1125 40L22.6545 38.9418L21.1965 40L21.7534 38.2879L20.2954 37.2297H22.0976L22.6545 35.5174Z" fill="#F8F8F8"/>
<path id="Vector_5" d="M16.5362 35.5174L17.0932 37.2297H18.8953L17.4373 38.2879L17.9942 40L16.5362 38.9418L15.0782 40L15.6352 38.2879L14.1772 37.2297H15.9793L16.5362 35.5174Z" fill="#F8F8F8"/>
<path id="Vector_6" d="M28.773 35.5174L29.33 37.2297H31.1321L29.6741 38.2879L30.231 40L28.773 38.9418L27.315 40L27.872 38.2879L26.414 37.2297H28.2161L28.773 35.5174Z" fill="#F8F8F8"/>
</g>
</svg>
