<svg width="39" height="31" viewBox="0 0 39 31" fill="none" xmlns="http://www.w3.org/2000/svg">
<g filter="url(#filter0_d_278_1489)">
<path d="M3 6C3 3.79086 4.79086 2 7 2H34V21C34 23.2091 32.2091 25 30 25H7C4.79086 25 3 23.2091 3 21V6Z" fill="#F8F8F8"/>
<path d="M5 6.97556V9.86462H9.221L5 6.97556ZM8.498 23.06H14.75V18.781L8.498 23.06ZM22.25 18.7818V23.06H28.5012L22.25 18.7818ZM5 17.1954V20.0844L9.2225 17.1954H5ZM28.5027 4H22.25V8.27897L28.5027 4ZM32 20.0852V17.1954H27.7767L32 20.0852ZM32 9.86462V6.97556L27.7783 9.86462H32ZM14.75 4H8.498L14.75 8.27897V4Z" fill="#00247D"/>
<path d="M23.8549 17.1954L31.1389 22.181C31.4946 21.8228 31.7503 21.3813 31.8814 20.8989L26.4702 17.1954H23.8549ZM14.7499 17.1954H13.1442L5.86093 22.1803C6.25168 22.5688 6.75268 22.8467 7.31443 22.9757L14.7499 17.8867V17.1954ZM22.2499 9.8646H23.8557L31.1389 4.87968C30.7415 4.48548 30.2377 4.20966 29.6862 4.08429L22.2499 9.17331V9.8646ZM13.1442 9.8646L5.86093 4.87968C5.50539 5.23813 5.24954 5.6795 5.11768 6.16183L10.5289 9.8646H13.1442Z" fill="#CF1B2B"/>
<path d="M32 15.7292H20.75V23.06H22.25V18.7818L28.5012 23.06H29C29.3984 23.0601 29.7929 22.9823 30.1602 22.8314C30.5275 22.6805 30.8603 22.4594 31.139 22.181L23.855 17.1954H26.4703L31.8815 20.8989C31.9512 20.6518 32 20.396 32 20.1277V20.0852L27.7767 17.1954H32V15.7292ZM5 15.7292V17.1954H9.2225L5 20.0844V20.1277C5 20.9275 5.32925 21.651 5.861 22.1803L13.1443 17.1954H14.75V17.8867L7.3145 22.975C7.535 23.0263 7.763 23.06 8 23.06H8.498L14.75 18.781V23.06H16.25V15.7292H5ZM32 6.93231C32.0005 6.16403 31.6911 5.42653 31.139 4.87969L23.8558 9.86462H22.25V9.17332L29.6863 4.0843C29.4616 4.03044 29.2313 4.00215 29 4H28.5027L22.25 8.27897V4H20.75V11.3308H32V9.86462H27.7783L32 6.97556V6.93231ZM14.75 4V8.27897L8.498 4H8C7.60147 3.99983 7.20692 4.07757 6.83958 4.22864C6.47224 4.37972 6.13952 4.60107 5.861 4.87969L13.1443 9.86462H10.529L5.11775 6.16184C5.04334 6.41234 5.00373 6.67149 5 6.93231V6.97556L9.221 9.86462H5V11.3308H16.25V4H14.75Z" fill="#EEEEEE"/>
<path d="M20.75 11.3308V4H16.25V11.3308H5V15.7292H16.25V23.06H20.75V15.7292H32V11.3308H20.75Z" fill="#CF1B2B"/>
</g>
<defs>
<filter id="filter0_d_278_1489" x="0" y="0" width="39" height="31" filterUnits="userSpaceOnUse" color-interpolation-filters="sRGB">
<feFlood flood-opacity="0" result="BackgroundImageFix"/>
<feColorMatrix in="SourceAlpha" type="matrix" values="0 0 0 0 0 0 0 0 0 0 0 0 0 0 0 0 0 0 127 0" result="hardAlpha"/>
<feOffset dx="1" dy="2"/>
<feGaussianBlur stdDeviation="2"/>
<feComposite in2="hardAlpha" operator="out"/>
<feColorMatrix type="matrix" values="0 0 0 0 0 0 0 0 0 0 0 0 0 0 0 0 0 0 0.05 0"/>
<feBlend mode="normal" in2="BackgroundImageFix" result="effect1_dropShadow_278_1489"/>
<feBlend mode="normal" in="SourceGraphic" in2="effect1_dropShadow_278_1489" result="shape"/>
</filter>
</defs>
</svg>
