<svg width="39" height="31" viewBox="0 0 39 31" fill="none" xmlns="http://www.w3.org/2000/svg">
<g filter="url(#filter0_d_278_1509)">
<path d="M3 6C3 3.79086 4.79086 2 7 2H34V21C34 23.2091 32.2091 25 30 25H7C4.79086 25 3 23.2091 3 21V6Z" fill="#F8F8F8"/>
<g clip-path="url(#clip0_278_1509)">
<path d="M5 5.69634C5 4.75948 5.75947 4 6.69633 4H32V10.3529H5V5.69634Z" fill="black"/>
<rect width="27" height="6.35294" transform="translate(5 10.3529)" fill="#D22F27"/>
<path d="M5 16.7059H32V21.3625C32 22.2994 31.2405 23.0588 30.3037 23.0588H6.69634C5.75948 23.0588 5 22.2994 5 21.3625V16.7059Z" fill="#F1B31C"/>
</g>
</g>
<defs>
<filter id="filter0_d_278_1509" x="0" y="0" width="39" height="31" filterUnits="userSpaceOnUse" color-interpolation-filters="sRGB">
<feFlood flood-opacity="0" result="BackgroundImageFix"/>
<feColorMatrix in="SourceAlpha" type="matrix" values="0 0 0 0 0 0 0 0 0 0 0 0 0 0 0 0 0 0 127 0" result="hardAlpha"/>
<feOffset dx="1" dy="2"/>
<feGaussianBlur stdDeviation="2"/>
<feComposite in2="hardAlpha" operator="out"/>
<feColorMatrix type="matrix" values="0 0 0 0 0 0 0 0 0 0 0 0 0 0 0 0 0 0 0.05 0"/>
<feBlend mode="normal" in2="BackgroundImageFix" result="effect1_dropShadow_278_1509"/>
<feBlend mode="normal" in="SourceGraphic" in2="effect1_dropShadow_278_1509" result="shape"/>
</filter>
<clipPath id="clip0_278_1509">
<rect width="27" height="19.0588" fill="white" transform="translate(5 4)"/>
</clipPath>
</defs>
</svg>
