<svg width="10" height="13" viewBox="0 0 10 13" fill="none" xmlns="http://www.w3.org/2000/svg">
<path d="M8.75 4.8125C8.75 3.76821 8.33516 2.76669 7.59673 2.02827C6.85831 1.28984 5.85679 0.875 4.8125 0.875C3.76821 0.875 2.76669 1.28984 2.02827 2.02827C1.28984 2.76669 0.875 3.76821 0.875 4.8125C0.875 6.42775 2.16737 8.533 4.8125 11.0547C7.45763 8.533 8.75 6.42775 8.75 4.8125ZM4.8125 12.25C1.60387 9.33363 0 6.85387 0 4.8125C0 3.53615 0.50703 2.31207 1.40955 1.40955C2.31207 0.50703 3.53615 0 4.8125 0C6.08885 0 7.31293 0.50703 8.21545 1.40955C9.11797 2.31207 9.625 3.53615 9.625 4.8125C9.625 6.85387 8.02113 9.33363 4.8125 12.25Z" fill="#F8F8F8" fill-opacity="0.6"/>
<path d="M4.8125 6.125C5.1606 6.125 5.49444 5.98672 5.74058 5.74058C5.98672 5.49444 6.125 5.1606 6.125 4.8125C6.125 4.4644 5.98672 4.13056 5.74058 3.88442C5.49444 3.63828 5.1606 3.5 4.8125 3.5C4.4644 3.5 4.13056 3.63828 3.88442 3.88442C3.63828 4.13056 3.5 4.4644 3.5 4.8125C3.5 5.1606 3.63828 5.49444 3.88442 5.74058C4.13056 5.98672 4.4644 6.125 4.8125 6.125ZM4.8125 7C4.23234 7 3.67594 6.76953 3.2657 6.3593C2.85547 5.94906 2.625 5.39266 2.625 4.8125C2.625 4.23234 2.85547 3.67594 3.2657 3.2657C3.67594 2.85547 4.23234 2.625 4.8125 2.625C5.39266 2.625 5.94906 2.85547 6.3593 3.2657C6.76953 3.67594 7 4.23234 7 4.8125C7 5.39266 6.76953 5.94906 6.3593 6.3593C5.94906 6.76953 5.39266 7 4.8125 7Z" fill="#F8F8F8" fill-opacity="0.6"/>
</svg>
