<svg width="14" height="24" viewBox="0 0 14 24" fill="none" xmlns="http://www.w3.org/2000/svg">
<path d="M13.4646 23.4717C13.8074 23.1334 14 22.6745 14 22.1961C14 21.7176 13.8074 21.2588 13.4646 20.9204L4.41359 11.9891L13.4646 3.05778C13.7977 2.71749 13.982 2.26171 13.9779 1.78863C13.9737 1.31554 13.7814 0.863001 13.4424 0.528467C13.1033 0.193933 12.6447 0.004179 12.1653 6.86646e-05C11.6859 -0.00404358 11.224 0.17782 10.8792 0.506491L0.535358 10.7135C0.192568 11.0518 0 11.5107 0 11.9891C0 12.4675 0.192568 12.9264 0.535358 13.2648L10.8792 23.4717C11.222 23.81 11.687 24 12.1719 24C12.6567 24 13.1217 23.81 13.4646 23.4717Z" fill="#F8F8F8"/>
</svg>
