<svg width="15" height="14" viewBox="0 0 10 11" fill="none" xmlns="http://www.w3.org/2000/svg">
<path d="M4.5262 1.2054C4.67915 0.75171 5.32085 0.751709 5.4738 1.2054L6.30181 3.66149C6.37036 3.86483 6.56102 4.00176 6.77561 4.00176H9.41436C9.90317 4.00176 10.1016 4.63093 9.70117 4.91132L7.59829 6.38395C7.41656 6.51122 7.34043 6.74302 7.41131 6.95325L8.22189 9.35744C8.37612 9.81489 7.85671 10.2037 7.46129 9.92674L5.28681 8.40398C5.11462 8.28339 4.88538 8.28339 4.71319 8.40398L2.53871 9.92675C2.14329 10.2037 1.62388 9.81489 1.77811 9.35744L2.58869 6.95325C2.65957 6.74302 2.58344 6.51122 2.40171 6.38395L0.298827 4.91132C-0.101563 4.63093 0.0968332 4.00176 0.585639 4.00176H3.22439C3.43898 4.00176 3.62964 3.86483 3.69819 3.66149L4.5262 1.2054Z" fill="#F8F8F8" fill-opacity="0.6"/>
</svg>
